<svg viewBox="129.92561950683594 20.745083236694335 193.4079620361328 193.4080383300781" version="1.1" xmlns="http://www.w3.org/2000/svg">
<g transform="scale(3.543299873306695,-3.543299873306695)"  style="stroke:black; stroke-width:0.2; stroke-linecap:round; stroke-linejoin:round; fill:none">

<path d="M48.87195048745654,-38.47368079830023 A11,11 0 1,1 58.63374987919798,-48.240343106709346"/>
<path d="M58.633960722650905,-48.23485539824656 A16,16 0 0,1 69.2853187788335,-48.23485539824656"/>
<path d="M69.28552962228643,-48.24034310670927 A11,11 0 1,1 75.24207849012411,-39.60303975720212"/>
<path d="M75.24252723611863,-39.601018353298876 A12.9982781441763,12.9982781441763 0 0,1 75.24252723611862,-26.693395070028288"/>
<path d="M75.24372901983888,-26.69310313981488 A11.0007948409669,11.0007948409669 0 1,1 69.28473929268542,-18.054154881885243"/>
<path d="M69.2853187788336,-18.059558025080676 A16,16 0 0,1 58.6339607226509,-18.05955802508064"/>
<path d="M58.63374987919797,-18.054070316617935 A11,11 0 1,1 48.871950487456566,-27.82073262502697"/>
<path d="M48.8720729737504,-27.821295639385603 A16,16 0 0,1 48.872072973750406,-38.473117783941596"/>

</g>
</svg>
